<svg xmlns="http://www.w3.org/2000/svg" width="228.341" height="52.471" viewBox="0 0 228.341 52.471">
  <g id="Group_86" data-name="Group 86" transform="translate(-578.98 -56.61)">
    <g id="XMLID_2093_" transform="translate(576.07 49.51)">
      <g id="XMLID_2163_" transform="translate(2.91 7.1)">
        <path id="XMLID_2173_" d="M170.488,146.825v8.787l-9.918-9.918,4.37-4.372.022-.022Z" transform="translate(-133.508 -118.265)" fill="#fff"/>
        <path id="XMLID_2170_" d="M115.139,19.982,112.1,23.018l-1.358,1.358-3.563,3.562-4.392,4.394-3.107,3.107L93.47,41.652V7.1l6.214,6.214V26.65l.089-.088,3.018-3.018v0l.525-.525h0l3.035-3.036Z" transform="translate(-77.926 -7.1)" fill="#fff"/>
        <path id="XMLID_2167_" d="M52.626,87.9c0-.033,0-.064,0-.1,0-.053,0-.1,0-.158s0-.094,0-.141a.186.186,0,0,0,0-.031c0-.065,0-.13-.005-.194a.1.1,0,0,0,0-.022c0-.1-.007-.208-.014-.311,0-.045,0-.089-.007-.134l-.005-.081c0-.064-.007-.127-.012-.191,0-.014,0-.029,0-.043-.005-.082-.01-.165-.017-.247v0c-.007-.088-.014-.175-.021-.261v0c-.007-.089-.015-.177-.024-.266s-.015-.163-.024-.244l-.005-.045c-.009-.081-.017-.16-.027-.24s-.021-.173-.033-.261c-.024-.184-.05-.366-.077-.548-.012-.079-.024-.158-.038-.237s-.029-.173-.043-.259-.029-.161-.043-.242l-.041-.225a.073.073,0,0,1,0-.019c-.007-.036-.014-.072-.022-.108-.01-.06-.022-.118-.036-.177s-.029-.137-.043-.206c-.009-.045-.019-.089-.029-.136s-.021-.1-.033-.148c0-.019-.009-.036-.012-.055-.012-.058-.026-.115-.039-.173-.01-.043-.021-.086-.031-.13s-.015-.064-.024-.1l-.046-.182a.126.126,0,0,0-.007-.024c-.015-.06-.031-.12-.046-.178-.01-.038-.019-.074-.029-.112s-.022-.086-.034-.13c-.019-.07-.039-.141-.058-.211s-.033-.117-.05-.175q-.044-.154-.093-.309c-.014-.043-.026-.086-.039-.129s-.029-.093-.045-.139c-.022-.072-.046-.144-.07-.216s-.053-.161-.081-.24-.057-.163-.084-.245-.05-.139-.074-.208l-.082-.223s0-.005,0-.007l-.082-.218c-.026-.067-.051-.132-.077-.2-.033-.084-.067-.168-.1-.252s-.058-.144-.089-.215l-.077-.182c-.1-.245-.215-.489-.326-.731-.06-.13-.122-.259-.185-.388-.031-.062-.06-.124-.091-.184-.041-.081-.081-.161-.122-.242l-.01-.021c-.033-.064-.065-.127-.1-.189s-.072-.137-.11-.206a.1.1,0,0,1-.007-.014c-.033-.062-.067-.124-.1-.185-.005-.009-.009-.017-.014-.026-.031-.058-.064-.115-.1-.173l-.129-.227c-.038-.067-.077-.134-.115-.2l0-.005c-.039-.069-.081-.136-.12-.2s-.081-.136-.122-.2-.076-.124-.115-.185a.24.24,0,0,0-.017-.027c-.039-.064-.079-.125-.12-.189l-.237-.366c-.034-.053-.07-.106-.106-.158l-.005-.009-.081-.118q-.255-.376-.525-.738c-.039-.053-.079-.106-.118-.158a.046.046,0,0,1-.009-.01l-.125-.165q-.275-.36-.561-.707c-.041-.051-.084-.1-.125-.151s-.084-.1-.127-.151-.065-.077-.1-.115-.086-.1-.13-.149-.106-.122-.16-.18l-3.174,3.174-1.229,1.229-3.282,3.282h5.539l.038.069c.043.079.084.16.125.239.027.053.055.106.081.16l.01.021c.033.065.065.13.1.2.067.136.132.273.194.41l.01.022c.027.058.053.117.079.175l.017.038c.029.064.057.129.084.194s.06.141.089.213h0c.029.069.057.137.084.206.038.093.074.187.11.282.017.045.034.089.05.134l.077.209c.026.07.05.141.074.211s.048.141.072.213.046.141.069.213.045.142.067.215l.062.206.005.014c.041.142.081.287.118.431.019.07.038.142.055.215,0,0,0,.005,0,.007.017.065.033.129.048.194.01.046.022.093.033.139l.036.153c.005.021.009.039.012.06.012.05.022.1.033.149.015.07.029.141.043.213.007.033.014.065.019.1.01.05.019.1.029.149l.005.031c.012.067.024.132.034.2v0c.01.064.021.127.033.192.021.129.041.259.058.39.007.053.015.108.021.161a.5.5,0,0,1,.007.053c.005.038.01.074.014.112s.012.093.017.137c0,.021.005.041.007.063l.015.139c0,.033.007.065.01.1.007.064.012.127.017.192.014.154.024.307.034.462v.007c0,.067.009.132.01.2l.005.1c0,.045.005.089.005.136,0,.019,0,.039,0,.058l.005.137c0,.041,0,.084,0,.125,0,.064,0,.129,0,.192s0,.149,0,.225a18.708,18.708,0,0,1-.218,2.86,18.409,18.409,0,0,1-.894,3.5l.046.046-.1.1c-.022.062-.046.124-.07.187s-.038.1-.058.149c-.031.079-.062.158-.094.235-.019.045-.036.089-.055.134q-.09.216-.185.427l-.058.13-.017.038-.053.115c-.019.041-.038.082-.058.124l-.005.01c-.021.045-.043.091-.065.136l-.057.115a.32.32,0,0,1-.017.034c-.021.043-.043.084-.064.127l-.051.1c-.022.045-.046.088-.069.132s-.041.081-.064.12-.046.088-.07.13-.051.094-.079.142c-.06.106-.12.213-.182.318-.022.039-.046.079-.069.117l-.021.033c-.026.043-.051.086-.077.127l-.088.144c-.022.038-.046.074-.07.112-.1.158-.2.316-.307.47l-.081.118c-.036.053-.074.108-.112.161q-.219.314-.451.618l-.124.16c-.124.158-.249.314-.378.469a18.7,18.7,0,0,1-2.182,2.213L27.771,90.164l-4.394,4.392-2.2,2.2-4.392,4.394L15.631,102.3h0l-.124-.108c-.055-.046-.108-.094-.161-.142s-.125-.113-.187-.17c-.014-.014-.029-.027-.043-.039-.062-.057-.122-.113-.184-.172s-.136-.129-.2-.2-.134-.132-.2-.2-.132-.134-.2-.2-.118-.124-.175-.185l-.026-.027c-.058-.062-.115-.124-.172-.185s-.1-.117-.156-.175l-.076-.086c-.026-.029-.051-.058-.077-.089l-.185-.216-.024-.029c-.033-.038-.065-.077-.1-.117-.019-.024-.038-.046-.058-.07l-.088-.108-.134-.168c-.024-.031-.048-.062-.072-.094s-.046-.058-.069-.089l-.088-.115c-.084-.112-.166-.227-.249-.34l-.1-.137c-.076-.108-.149-.216-.223-.324l-.108-.165c-.036-.055-.072-.11-.106-.165s-.07-.112-.106-.166l-.1-.167c-.11-.18-.216-.362-.321-.548-.026-.045-.05-.089-.074-.134-.036-.064-.07-.127-.1-.191s-.057-.106-.084-.16c-.017-.031-.033-.064-.05-.1s-.041-.079-.06-.118c-.046-.089-.091-.178-.136-.269l-.046-.1c-.05-.1-.1-.206-.146-.309-.027-.058-.053-.115-.079-.173-.057-.127-.113-.256-.166-.384-.046-.11-.091-.218-.136-.33-.022-.055-.043-.11-.065-.165-.012-.033-.026-.065-.038-.1s-.034-.093-.051-.137l-.091-.091.041-.043a.084.084,0,0,0-.005-.012c-.024-.065-.048-.132-.07-.2s-.048-.139-.072-.209c-.048-.146-.1-.292-.141-.438-.021-.065-.041-.132-.06-.2a.373.373,0,0,0-.012-.041l-.046-.16c-.017-.064-.036-.127-.053-.191-.012-.045-.024-.089-.036-.136-.005-.022-.012-.045-.017-.067s-.019-.074-.029-.112-.019-.072-.027-.108-.021-.081-.029-.122c-.005-.019-.009-.036-.012-.055-.014-.055-.026-.112-.038-.166s-.029-.127-.043-.192c-.048-.223-.093-.448-.132-.673-.01-.062-.022-.124-.033-.185s-.021-.12-.029-.179l-.01-.06c-.005-.038-.012-.074-.017-.112s-.012-.086-.019-.127l-.015-.112c-.017-.12-.031-.24-.045-.36l-.015-.146c0-.014,0-.027-.005-.043l-.01-.1c-.005-.041-.009-.082-.012-.124s-.007-.069-.009-.1a.166.166,0,0,1,0-.029c-.005-.053-.009-.106-.014-.158s-.009-.12-.012-.182-.009-.134-.012-.2c-.005-.084-.009-.17-.012-.254l-.005-.132c0-.036,0-.074,0-.11l-.005-.168c0-.06,0-.12,0-.179v-.01c0-.07,0-.141,0-.211a18.726,18.726,0,0,1,.271-3.184,18.413,18.413,0,0,1,.944-3.45l.046-.118c.012-.034.026-.069.039-.1s.036-.089.055-.134.026-.064.039-.1c.005-.015.012-.031.019-.046.017-.043.036-.086.055-.129.033-.077.065-.154.1-.232l.057-.129.077-.17c.036-.077.072-.154.108-.23.017-.036.034-.072.051-.106.048-.1.1-.2.149-.3.033-.065.067-.13.1-.2l.067-.127c.017-.034.036-.069.055-.1H16.9L13.622,76l-4.4-4.4a24.791,24.791,0,0,0-4.9,8.28c-.051.148-.1.3-.151.445-.015.043-.029.088-.043.132s-.034.1-.05.154c0,0,0,0,0,0l-.067.211c-.012.041-.026.084-.038.125-.019.062-.038.125-.057.189l-.046.16c-.01.038-.022.076-.033.115-.019.067-.038.134-.055.2-.012.046-.026.091-.036.137s-.022.086-.034.129c-.039.149-.077.3-.113.451-.007.031-.015.062-.022.093-.014.06-.029.122-.043.182s-.034.149-.05.223l-.031.141c-.005.026-.01.051-.017.077-.009.045-.019.091-.027.136s-.022.108-.033.163l-.036.191c-.01.05-.019.1-.029.153-.005.033-.012.065-.017.1s-.014.074-.019.112c0,.015-.005.033-.009.048-.012.076-.026.151-.038.227,0,.005,0,.009,0,.014l-.036.227c-.012.076-.022.153-.034.23a.01.01,0,0,1,0,.007c-.009.067-.019.136-.027.2q-.033.252-.062.5c-.009.079-.017.158-.024.235s-.015.158-.022.239S3,85.991,3,86.07c-.005.06-.01.12-.014.18,0,.041-.007.082-.009.122s-.005.062-.007.094-.005.084-.009.125c0,.065-.009.132-.01.2s-.005.106-.009.16c0,.036,0,.072-.005.11,0,.072-.007.142-.009.215q-.015.433-.015.865c0,.077,0,.153,0,.23,0,.1,0,.2.005.3,0,.06,0,.118.005.179,0,.154.01.309.017.462l.005.1v.009l.01.2c.01.167.021.333.034.5.005.057.009.113.014.17,0,.026.005.051.007.077,0,.009,0,.015,0,.024.005.065.012.129.019.194.007.081.015.16.024.239s.019.173.029.259.017.146.027.218l.031.237c.01.077.021.154.033.232a.006.006,0,0,0,0,.005l.036.237.031.191c.005.033.01.065.017.1.009.055.019.11.027.163.024.134.048.268.074.4l.026.13.041.206c.012.064.026.125.039.189l.046.211c.01.043.019.086.029.129.026.112.053.225.079.336.012.045.022.089.034.134s.024.1.038.149l.051.2c.026.1.053.2.081.294.015.055.031.11.046.163.039.139.081.276.122.414.012.038.022.076.034.113.019.058.036.115.055.173s.043.134.065.2.046.137.069.206c.017.048.033.1.05.144s.033.1.05.144c.038.11.079.22.118.33l.062.168c.027.072.055.144.082.215.015.041.031.081.046.12.079.2.161.4.245.6.027.067.057.132.086.2.019.045.039.089.058.134s.051.118.079.177l.021.045.086.189.039.086c.007.015.014.031.022.046.033.07.065.139.1.208l.118.242c.012.022.022.045.034.069l.115.228c.046.089.093.178.139.266.007.012.012.024.019.036l.113.211c.01.019.021.036.029.055.041.076.082.151.125.227s.1.175.148.261c.1.173.2.345.306.517.051.086.1.17.158.256s.12.191.18.285q.152.237.309.469l.144.211c.014.019.026.038.038.057.053.076.106.151.16.225s.115.161.175.242l.012.015.149.2.045.06c.05.067.1.134.153.2.065.086.132.172.2.256.05.064.1.127.151.191l.033.041.154.191c.122.148.245.3.371.439l.072.084c.1.115.2.23.306.343.033.036.064.072.1.106.1.115.211.23.319.342l.076.081c.007.009.015.015.022.024.05.053.1.1.153.158s.129.132.194.2l.026.026.2.2c.06.06.122.118.184.177.022.022.045.043.067.063a0,0,0,0,1,0,0l.18.17c.055.051.11.1.166.153.027.026.055.05.082.074.074.067.148.134.221.2s.13.115.2.172.115.1.173.148l.1.082c.039.034.081.067.12.1l.086.072c.012.01.024.021.036.029.058.048.117.1.175.142.076.062.153.122.23.184a.181.181,0,0,1,.021.017l.22.17c.07.055.142.11.215.163l.036.027c.065.05.132.1.2.146l.064.046c.069.05.137.1.206.148s.124.088.185.13c.036.026.072.051.11.076l.168.115.2.134.122.081.208.134,0,0,.227.144c.161.1.324.2.487.3l.094.057.213.124c.086.05.173.1.261.148s.17.094.254.141l.027.015c.081.045.163.088.244.13l.005,0c.084.045.168.088.252.13l4.7-4.7h0l.041-.041,4.394-4.392,2.2-2.2,6.631,6.631,4.7,4.7A24.826,24.826,0,0,0,52.622,88.636c0-.167.005-.331.005-.5C52.627,88.063,52.627,87.984,52.626,87.9Z" transform="translate(-2.91 -60.529)" fill="#fff"/>
        <path id="XMLID_2164_" d="M107.891,256.48h0l-4.394,4.392L99.63,264.74a24.715,24.715,0,0,0,7.4,1.39q.427.015.86.015c.29,0,.578-.005.867-.015a24.717,24.717,0,0,0,7.4-1.392l-3.865-3.865Z" transform="translate(-83.028 -213.675)" fill="#f15b2b"/>
      </g>
      <g id="XMLID_2094_" transform="translate(63.607 22.993)">
        <path id="XMLID_2158_" d="M369.465,105.965a3.994,3.994,0,0,0,.647-2.2,4.086,4.086,0,0,0-4.075-4.075H356.53v15.093h10.285a4.807,4.807,0,0,0,2.65-8.817Zm-10.24-3.579h6.835a1.379,1.379,0,0,1,0,2.758h-6.835Zm7.588,9.681v.021h-7.59V107.84h7.59a2.114,2.114,0,0,1,0,4.228Z" transform="translate(-356.53 -99.69)" fill="#fff"/>
        <path id="XMLID_2154_" d="M458.4,99.69a7.546,7.546,0,1,0,7.546,7.547A7.556,7.556,0,0,0,458.4,99.69Zm0,12.4a4.851,4.851,0,1,1,4.851-4.851A4.858,4.858,0,0,1,458.4,112.088Z" transform="translate(-434.66 -99.69)" fill="#fff"/>
        <path id="XMLID_2152_" d="M560.716,99.69v11.018a1.389,1.389,0,0,1-1.378,1.38h-6.943a1.39,1.39,0,0,1-1.38-1.38v-2.824H548.32v2.824a4.069,4.069,0,0,0,4.075,4.054h6.943a4.067,4.067,0,0,0,4.075-4.054V99.69Z" transform="translate(-515.4 -99.69)" fill="#fff"/>
        <path id="XMLID_2150_" d="M652.983,102.387H664v-2.7H652.983a4.067,4.067,0,0,0-4.053,4.075v6.943a4.067,4.067,0,0,0,4.053,4.075H664v-2.695H652.983a1.389,1.389,0,0,1-1.378-1.38v-2.846h9.7v-2.695h-9.7v-1.4A1.389,1.389,0,0,1,652.983,102.387Z" transform="translate(-598.741 -99.69)" fill="#fff"/>
        <path id="XMLID_2148_" d="M795.37,99.69v15.093h2.695V99.69Z" transform="translate(-720.045 -99.69)" fill="#fff"/>
        <path id="XMLID_2146_" d="M874.248,112.2a2.154,2.154,0,0,1-1.833-1.833V99.82H869.72v10.285a4.675,4.675,0,0,0,.5,2.113,4.8,4.8,0,0,0,2.178,2.2,4.7,4.7,0,0,0,2.113.494h7.654v-2.695Z" transform="translate(-781.633 -99.798)" fill="#fff"/>
        <path id="XMLID_2144_" d="M963.755,112.088l-6.318-12.4-6.318,12.4-1.378,2.695h3.017l1.378-2.695,3.3-6.468,3.3,6.468,1.38,2.695h3.017Z" transform="translate(-847.918 -99.69)" fill="#fff"/>
        <path id="XMLID_2140_" d="M1135.386,99.69a7.546,7.546,0,1,0,7.547,7.547A7.554,7.554,0,0,0,1135.386,99.69Zm0,12.4a4.851,4.851,0,1,1,4.851-4.851A4.858,4.858,0,0,1,1135.386,112.088Z" transform="translate(-995.448 -99.69)" fill="#fff"/>
        <path id="XMLID_2138_" d="M1232.544,99.69l-1.378,2.7-3.3,6.468-3.3-6.468-1.38-2.7h-3.017l1.38,2.7,6.317,12.4,6.318-12.4,1.378-2.7Z" transform="translate(-1071.93 -99.69)" fill="#fff"/>
        <path id="XMLID_2136_" d="M1317.5,99.69v15.093h2.7V99.69Z" transform="translate(-1152.553 -99.69)" fill="#fff"/>
        <g id="XMLID_2132_" transform="translate(118.487 0)">
          <path id="XMLID_2133_" d="M1057.117,108.2l-2.006,1.826,3.45,4.761h3.321Zm.839-8.507-4.205,3.86-2.005,1.831-2.217,2.027V99.69h-2.7v15.095h2.7v-3.732l2.072-1.885,0,0,3.754-3.414.187-.172,6.409-5.887h-3.991Z" transform="translate(-1046.83 -99.69)" fill="#fff"/>
        </g>
        <path id="XMLID_2130_" d="M356.53,256.71v1.457c.64,0,1.282,0,1.922,0h76.1v-1.447Z" transform="translate(-356.53 -229.758)" fill="#fff"/>
        <g id="XMLID_2095_" transform="translate(88.09 23.617)">
          <path id="XMLID_2128_" d="M878.4,237.29l-1.459,4.885-1.227-1.7-.232-.324-.659-.9-.659.9-.23.324-1.227,1.7-1.459-4.885H869.74l1.886,6.354.522,1.737,1.066-1.469,1.6-2.211,1.61,2.211,1.064,1.481.522-1.747,1.9-6.354H878.4Z" transform="translate(-869.74 -237.288)" fill="#fff"/>
          <path id="XMLID_2123_" d="M932.921,237.29a4.051,4.051,0,1,0,4.051,4.051A4.055,4.055,0,0,0,932.921,237.29Zm0,6.655a2.6,2.6,0,1,1,2.6-2.6A2.608,2.608,0,0,1,932.921,243.945Z" transform="translate(-918.721 -237.288)" fill="#fff"/>
          <path id="XMLID_2119_" d="M983.631,237.29a4.051,4.051,0,1,0,4.051,4.051A4.055,4.055,0,0,0,983.631,237.29Zm0,6.655a2.6,2.6,0,1,1,2.6-2.6A2.608,2.608,0,0,1,983.631,243.945Z" transform="translate(-960.726 -237.288)" fill="#fff"/>
          <path id="XMLID_2114_" d="M1035.949,237.292l.012-.012h-4.051v8.1h4.051a3.984,3.984,0,0,0,2.848-1.191c.082-.082.163-.163.232-.244a4.039,4.039,0,0,0-3.091-6.655Zm0,6.658h-2.6v-5.21h2.6a2.6,2.6,0,0,1,0,5.21Z" transform="translate(-1004.074 -237.28)" fill="#fff"/>
          <path id="XMLID_2111_" d="M1108.361,240.534l.021-.021,3.522-3.234h-2.14l-2.259,2.074-1.076.983-1.191,1.088V237.28h-1.447v8.1h1.447v-2l1.112-1.011,0,0Zm-.3,2.055,2.026,2.794h1.783l-2.731-3.774Z" transform="translate(-1063.616 -237.28)" fill="#fff"/>
          <path id="XMLID_2106_" d="M1151.341,237.29a4.051,4.051,0,1,0,4.051,4.051A4.055,4.055,0,0,0,1151.341,237.29Zm0,6.655a2.6,2.6,0,1,1,2.6-2.6A2.608,2.608,0,0,1,1151.341,243.945Z" transform="translate(-1099.65 -237.288)" fill="#fff"/>
          <path id="XMLID_2104_" d="M1202.042,243.994a1.154,1.154,0,0,1-.985-.984V237.35h-1.447v5.522a2.5,2.5,0,0,0,.268,1.135,2.567,2.567,0,0,0,1.169,1.179,2.526,2.526,0,0,0,1.135.268h4.109v-1.447Z" transform="translate(-1142.989 -237.338)" fill="#fff"/>
          <path id="XMLID_2100_" d="M1242.5,237.29a4.051,4.051,0,1,0,4.053,4.051A4.055,4.055,0,0,0,1242.5,237.29Zm0,6.655a2.6,2.6,0,1,1,2.606-2.6A2.608,2.608,0,0,1,1242.5,243.945Z" transform="translate(-1175.163 -237.288)" fill="#fff"/>
          <path id="XMLID_2096_" d="M1296.122,241.779a2,2,0,0,0,.625-.173,2.18,2.18,0,0,0-.9-4.166h-5.115v8.1h1.447v-3.728h1.447a1.437,1.437,0,0,1,1.227.7l.034.069.776,1.516.742,1.447h1.618l-.74-1.447Zm-3.946-1.4v-1.492h3.668a.739.739,0,0,1,.522.208.763.763,0,0,1,.22.532.732.732,0,0,1-.441.671.67.67,0,0,1-.3.069Z" transform="translate(-1218.469 -237.413)" fill="#fff"/>
        </g>
      </g>
    </g>
  </g>
</svg>
